<mxfile host="app.diagrams.net" modified="2024-03-18T07:38:24.739Z" agent="Mozilla/5.0 (Macintosh; Intel Mac OS X 10_15_7) AppleWebKit/537.36 (KHTML, like Gecko) Chrome/122.0.0.0 Safari/537.36" etag="yogXO3T2UvdbYkFmf_bV" version="24.0.7" type="github">
  <diagram id="XcACTM1fnx8MsUZFHVDI" name="Page-1">
    <mxGraphModel dx="1948" dy="905" grid="1" gridSize="10" guides="1" tooltips="1" connect="1" arrows="1" fold="1" page="1" pageScale="1" pageWidth="850" pageHeight="1100" math="0" shadow="0">
      <root>
        <mxCell id="0" />
        <mxCell id="1" parent="0" />
        <mxCell id="2dUm0IqJ99PUmUajHs-Z-5" style="edgeStyle=orthogonalEdgeStyle;rounded=0;orthogonalLoop=1;jettySize=auto;html=1;exitX=0.5;exitY=1;exitDx=0;exitDy=0;" parent="1" source="2dUm0IqJ99PUmUajHs-Z-1" target="2dUm0IqJ99PUmUajHs-Z-4" edge="1">
          <mxGeometry relative="1" as="geometry" />
        </mxCell>
        <mxCell id="2dUm0IqJ99PUmUajHs-Z-1" value="用户点击对应链接" style="rounded=1;whiteSpace=wrap;html=1;" parent="1" vertex="1">
          <mxGeometry x="260" y="140" width="290" height="60" as="geometry" />
        </mxCell>
        <mxCell id="2dUm0IqJ99PUmUajHs-Z-8" value="" style="edgeStyle=orthogonalEdgeStyle;rounded=0;orthogonalLoop=1;jettySize=auto;html=1;" parent="1" source="2dUm0IqJ99PUmUajHs-Z-4" target="2dUm0IqJ99PUmUajHs-Z-7" edge="1">
          <mxGeometry relative="1" as="geometry" />
        </mxCell>
        <mxCell id="2dUm0IqJ99PUmUajHs-Z-4" value="唤起原生App，App控制中心进行预校验" style="rounded=1;whiteSpace=wrap;html=1;" parent="1" vertex="1">
          <mxGeometry x="260" y="250" width="290" height="60" as="geometry" />
        </mxCell>
        <mxCell id="Fgwxg3CD9Kskw9y_7Hu7-6" value="" style="edgeStyle=orthogonalEdgeStyle;rounded=0;orthogonalLoop=1;jettySize=auto;html=1;" parent="1" source="2dUm0IqJ99PUmUajHs-Z-7" target="Fgwxg3CD9Kskw9y_7Hu7-5" edge="1">
          <mxGeometry relative="1" as="geometry" />
        </mxCell>
        <mxCell id="Fgwxg3CD9Kskw9y_7Hu7-7" value="&lt;font style=&quot;font-size: 14px;&quot;&gt;不可信&lt;/font&gt;" style="edgeLabel;html=1;align=center;verticalAlign=middle;resizable=0;points=[];" parent="Fgwxg3CD9Kskw9y_7Hu7-6" vertex="1" connectable="0">
          <mxGeometry x="-0.1636" y="2" relative="1" as="geometry">
            <mxPoint x="-1" as="offset" />
          </mxGeometry>
        </mxCell>
        <mxCell id="Fgwxg3CD9Kskw9y_7Hu7-11" value="" style="edgeStyle=orthogonalEdgeStyle;rounded=0;orthogonalLoop=1;jettySize=auto;html=1;" parent="1" source="2dUm0IqJ99PUmUajHs-Z-7" target="Fgwxg3CD9Kskw9y_7Hu7-10" edge="1">
          <mxGeometry relative="1" as="geometry" />
        </mxCell>
        <mxCell id="Fgwxg3CD9Kskw9y_7Hu7-12" value="&lt;font style=&quot;font-size: 14px;&quot;&gt;可信&lt;/font&gt;" style="edgeLabel;html=1;align=center;verticalAlign=middle;resizable=0;points=[];" parent="Fgwxg3CD9Kskw9y_7Hu7-11" vertex="1" connectable="0">
          <mxGeometry x="-0.36" y="1" relative="1" as="geometry">
            <mxPoint x="-1" y="4" as="offset" />
          </mxGeometry>
        </mxCell>
        <mxCell id="2dUm0IqJ99PUmUajHs-Z-7" value="根据签名验证链接是否可信" style="rounded=1;whiteSpace=wrap;html=1;" parent="1" vertex="1">
          <mxGeometry x="260" y="350" width="290" height="60" as="geometry" />
        </mxCell>
        <mxCell id="2dUm0IqJ99PUmUajHs-Z-14" value="" style="edgeStyle=orthogonalEdgeStyle;rounded=0;orthogonalLoop=1;jettySize=auto;html=1;entryX=0.5;entryY=0;entryDx=0;entryDy=0;" parent="1" source="2dUm0IqJ99PUmUajHs-Z-11" target="2dUm0IqJ99PUmUajHs-Z-15" edge="1">
          <mxGeometry relative="1" as="geometry" />
        </mxCell>
        <mxCell id="2dUm0IqJ99PUmUajHs-Z-18" value="不需要登录" style="edgeLabel;html=1;align=center;verticalAlign=middle;resizable=0;points=[];" parent="2dUm0IqJ99PUmUajHs-Z-14" vertex="1" connectable="0">
          <mxGeometry x="-0.037" y="-1" relative="1" as="geometry">
            <mxPoint as="offset" />
          </mxGeometry>
        </mxCell>
        <mxCell id="Fgwxg3CD9Kskw9y_7Hu7-15" style="edgeStyle=orthogonalEdgeStyle;rounded=0;orthogonalLoop=1;jettySize=auto;html=1;entryX=0.5;entryY=1;entryDx=0;entryDy=0;exitX=1;exitY=0.5;exitDx=0;exitDy=0;" parent="1" source="Fgwxg3CD9Kskw9y_7Hu7-10" target="Fgwxg3CD9Kskw9y_7Hu7-5" edge="1">
          <mxGeometry relative="1" as="geometry" />
        </mxCell>
        <mxCell id="Fgwxg3CD9Kskw9y_7Hu7-16" value="&lt;font style=&quot;font-size: 14px;&quot;&gt;不在白名单&lt;/font&gt;" style="edgeLabel;html=1;align=center;verticalAlign=middle;resizable=0;points=[];" parent="Fgwxg3CD9Kskw9y_7Hu7-15" vertex="1" connectable="0">
          <mxGeometry x="-0.3978" y="-2" relative="1" as="geometry">
            <mxPoint as="offset" />
          </mxGeometry>
        </mxCell>
        <mxCell id="2dUm0IqJ99PUmUajHs-Z-11" value="判断是否需要登录等前置操作" style="rounded=1;whiteSpace=wrap;html=1;" parent="1" vertex="1">
          <mxGeometry x="260" y="570" width="290" height="60" as="geometry" />
        </mxCell>
        <mxCell id="2dUm0IqJ99PUmUajHs-Z-13" value="跳转登录" style="rounded=1;whiteSpace=wrap;html=1;" parent="1" vertex="1">
          <mxGeometry x="90" y="720" width="290" height="60" as="geometry" />
        </mxCell>
        <mxCell id="2dUm0IqJ99PUmUajHs-Z-15" value="直接跳转对应页面" style="rounded=1;whiteSpace=wrap;html=1;" parent="1" vertex="1">
          <mxGeometry x="450" y="720" width="290" height="60" as="geometry" />
        </mxCell>
        <mxCell id="2dUm0IqJ99PUmUajHs-Z-16" value="" style="edgeStyle=orthogonalEdgeStyle;rounded=0;orthogonalLoop=1;jettySize=auto;html=1;entryX=0.5;entryY=0;entryDx=0;entryDy=0;exitX=0.5;exitY=1;exitDx=0;exitDy=0;" parent="1" source="2dUm0IqJ99PUmUajHs-Z-11" target="2dUm0IqJ99PUmUajHs-Z-13" edge="1">
          <mxGeometry relative="1" as="geometry">
            <mxPoint x="415" y="650" as="sourcePoint" />
            <mxPoint x="605" y="730" as="targetPoint" />
          </mxGeometry>
        </mxCell>
        <mxCell id="2dUm0IqJ99PUmUajHs-Z-17" value="需要登录" style="edgeLabel;html=1;align=center;verticalAlign=middle;resizable=0;points=[];" parent="2dUm0IqJ99PUmUajHs-Z-16" vertex="1" connectable="0">
          <mxGeometry x="0.184" y="-1" relative="1" as="geometry">
            <mxPoint as="offset" />
          </mxGeometry>
        </mxCell>
        <mxCell id="2dUm0IqJ99PUmUajHs-Z-19" value="" style="edgeStyle=orthogonalEdgeStyle;rounded=0;orthogonalLoop=1;jettySize=auto;html=1;entryX=0.5;entryY=1;entryDx=0;entryDy=0;exitX=0.5;exitY=1;exitDx=0;exitDy=0;" parent="1" source="2dUm0IqJ99PUmUajHs-Z-13" target="2dUm0IqJ99PUmUajHs-Z-15" edge="1">
          <mxGeometry relative="1" as="geometry">
            <mxPoint x="415" y="650" as="sourcePoint" />
            <mxPoint x="245" y="730" as="targetPoint" />
          </mxGeometry>
        </mxCell>
        <mxCell id="2dUm0IqJ99PUmUajHs-Z-20" value="登录成功" style="edgeLabel;html=1;align=center;verticalAlign=middle;resizable=0;points=[];" parent="2dUm0IqJ99PUmUajHs-Z-19" vertex="1" connectable="0">
          <mxGeometry x="0.184" y="-1" relative="1" as="geometry">
            <mxPoint x="-32" as="offset" />
          </mxGeometry>
        </mxCell>
        <mxCell id="Fgwxg3CD9Kskw9y_7Hu7-3" style="edgeStyle=orthogonalEdgeStyle;rounded=0;orthogonalLoop=1;jettySize=auto;html=1;entryX=0.5;entryY=0;entryDx=0;entryDy=0;" parent="1" source="Fgwxg3CD9Kskw9y_7Hu7-1" target="2dUm0IqJ99PUmUajHs-Z-1" edge="1">
          <mxGeometry relative="1" as="geometry" />
        </mxCell>
        <mxCell id="Fgwxg3CD9Kskw9y_7Hu7-4" value="&lt;font style=&quot;font-size: 14px;&quot;&gt;运营下发链接xdfkoolearn:p/webview&lt;/font&gt;" style="edgeLabel;html=1;align=center;verticalAlign=middle;resizable=0;points=[];" parent="Fgwxg3CD9Kskw9y_7Hu7-3" vertex="1" connectable="0">
          <mxGeometry x="-0.5268" y="2" relative="1" as="geometry">
            <mxPoint x="36" as="offset" />
          </mxGeometry>
        </mxCell>
        <mxCell id="Fgwxg3CD9Kskw9y_7Hu7-1" value="Actor" style="shape=umlActor;verticalLabelPosition=bottom;verticalAlign=top;html=1;outlineConnect=0;" parent="1" vertex="1">
          <mxGeometry x="90" y="40" width="30" height="60" as="geometry" />
        </mxCell>
        <mxCell id="Fgwxg3CD9Kskw9y_7Hu7-5" value="禁止跳转，返回原页面" style="rounded=1;whiteSpace=wrap;html=1;" parent="1" vertex="1">
          <mxGeometry x="660" y="350" width="290" height="60" as="geometry" />
        </mxCell>
        <mxCell id="Fgwxg3CD9Kskw9y_7Hu7-13" value="" style="edgeStyle=orthogonalEdgeStyle;rounded=0;orthogonalLoop=1;jettySize=auto;html=1;" parent="1" source="Fgwxg3CD9Kskw9y_7Hu7-10" target="2dUm0IqJ99PUmUajHs-Z-11" edge="1">
          <mxGeometry relative="1" as="geometry" />
        </mxCell>
        <mxCell id="Fgwxg3CD9Kskw9y_7Hu7-14" value="&lt;font style=&quot;font-size: 14px;&quot;&gt;在白名单&lt;/font&gt;" style="edgeLabel;html=1;align=center;verticalAlign=middle;resizable=0;points=[];" parent="Fgwxg3CD9Kskw9y_7Hu7-13" vertex="1" connectable="0">
          <mxGeometry x="-0.16" y="-2" relative="1" as="geometry">
            <mxPoint as="offset" />
          </mxGeometry>
        </mxCell>
        <mxCell id="Fgwxg3CD9Kskw9y_7Hu7-10" value="WebView验证url是否在白名单（koolearn.com/xdf.cn)" style="rounded=1;whiteSpace=wrap;html=1;" parent="1" vertex="1">
          <mxGeometry x="260" y="460" width="290" height="60" as="geometry" />
        </mxCell>
        <mxCell id="TGXUFtwsRN9BxCt1GPU5-4" style="edgeStyle=orthogonalEdgeStyle;rounded=0;orthogonalLoop=1;jettySize=auto;html=1;exitX=0.5;exitY=1;exitDx=0;exitDy=0;entryX=0.5;entryY=0;entryDx=0;entryDy=0;" edge="1" parent="1" source="TGXUFtwsRN9BxCt1GPU5-2" target="TGXUFtwsRN9BxCt1GPU5-3">
          <mxGeometry relative="1" as="geometry" />
        </mxCell>
        <mxCell id="TGXUFtwsRN9BxCt1GPU5-2" value="jenkins打包" style="rounded=1;whiteSpace=wrap;html=1;" vertex="1" parent="1">
          <mxGeometry x="1280" y="50" width="120" height="40" as="geometry" />
        </mxCell>
        <mxCell id="TGXUFtwsRN9BxCt1GPU5-6" style="edgeStyle=orthogonalEdgeStyle;rounded=0;orthogonalLoop=1;jettySize=auto;html=1;exitX=0.5;exitY=1;exitDx=0;exitDy=0;entryX=0.5;entryY=0;entryDx=0;entryDy=0;" edge="1" parent="1" source="TGXUFtwsRN9BxCt1GPU5-3" target="TGXUFtwsRN9BxCt1GPU5-5">
          <mxGeometry relative="1" as="geometry" />
        </mxCell>
        <mxCell id="TGXUFtwsRN9BxCt1GPU5-3" value="QA验证" style="rounded=1;whiteSpace=wrap;html=1;" vertex="1" parent="1">
          <mxGeometry x="1280" y="140" width="120" height="40" as="geometry" />
        </mxCell>
        <mxCell id="TGXUFtwsRN9BxCt1GPU5-9" style="edgeStyle=orthogonalEdgeStyle;rounded=0;orthogonalLoop=1;jettySize=auto;html=1;exitX=0.5;exitY=1;exitDx=0;exitDy=0;entryX=0.5;entryY=0;entryDx=0;entryDy=0;" edge="1" parent="1" source="TGXUFtwsRN9BxCt1GPU5-5" target="TGXUFtwsRN9BxCt1GPU5-8">
          <mxGeometry relative="1" as="geometry" />
        </mxCell>
        <mxCell id="TGXUFtwsRN9BxCt1GPU5-5" value="上传灰度平台" style="rounded=1;whiteSpace=wrap;html=1;" vertex="1" parent="1">
          <mxGeometry x="1280" y="230" width="120" height="40" as="geometry" />
        </mxCell>
        <mxCell id="TGXUFtwsRN9BxCt1GPU5-11" style="edgeStyle=orthogonalEdgeStyle;rounded=0;orthogonalLoop=1;jettySize=auto;html=1;exitX=1;exitY=0.5;exitDx=0;exitDy=0;entryX=0;entryY=0.5;entryDx=0;entryDy=0;" edge="1" parent="1" source="TGXUFtwsRN9BxCt1GPU5-8" target="TGXUFtwsRN9BxCt1GPU5-10">
          <mxGeometry relative="1" as="geometry" />
        </mxCell>
        <mxCell id="TGXUFtwsRN9BxCt1GPU5-12" value="否" style="edgeLabel;html=1;align=center;verticalAlign=middle;resizable=0;points=[];" vertex="1" connectable="0" parent="TGXUFtwsRN9BxCt1GPU5-11">
          <mxGeometry x="-0.1059" relative="1" as="geometry">
            <mxPoint as="offset" />
          </mxGeometry>
        </mxCell>
        <mxCell id="TGXUFtwsRN9BxCt1GPU5-16" style="edgeStyle=orthogonalEdgeStyle;rounded=0;orthogonalLoop=1;jettySize=auto;html=1;exitX=0.5;exitY=1;exitDx=0;exitDy=0;entryX=0.5;entryY=0;entryDx=0;entryDy=0;" edge="1" parent="1" source="TGXUFtwsRN9BxCt1GPU5-8" target="TGXUFtwsRN9BxCt1GPU5-13">
          <mxGeometry relative="1" as="geometry" />
        </mxCell>
        <mxCell id="TGXUFtwsRN9BxCt1GPU5-17" value="是" style="edgeLabel;html=1;align=center;verticalAlign=middle;resizable=0;points=[];" vertex="1" connectable="0" parent="TGXUFtwsRN9BxCt1GPU5-16">
          <mxGeometry x="-0.0857" relative="1" as="geometry">
            <mxPoint as="offset" />
          </mxGeometry>
        </mxCell>
        <mxCell id="TGXUFtwsRN9BxCt1GPU5-8" value="是否开启灰度" style="rhombus;whiteSpace=wrap;html=1;" vertex="1" parent="1">
          <mxGeometry x="1275" y="330" width="130" height="50" as="geometry" />
        </mxCell>
        <mxCell id="TGXUFtwsRN9BxCt1GPU5-10" value="全量发布" style="rounded=1;whiteSpace=wrap;html=1;" vertex="1" parent="1">
          <mxGeometry x="1490" y="335" width="120" height="40" as="geometry" />
        </mxCell>
        <mxCell id="TGXUFtwsRN9BxCt1GPU5-20" style="edgeStyle=orthogonalEdgeStyle;rounded=0;orthogonalLoop=1;jettySize=auto;html=1;exitX=0.5;exitY=1;exitDx=0;exitDy=0;entryX=0.5;entryY=0;entryDx=0;entryDy=0;" edge="1" parent="1" source="TGXUFtwsRN9BxCt1GPU5-13" target="TGXUFtwsRN9BxCt1GPU5-18">
          <mxGeometry relative="1" as="geometry" />
        </mxCell>
        <mxCell id="TGXUFtwsRN9BxCt1GPU5-21" style="edgeStyle=orthogonalEdgeStyle;rounded=0;orthogonalLoop=1;jettySize=auto;html=1;exitX=0.5;exitY=1;exitDx=0;exitDy=0;entryX=0.5;entryY=0;entryDx=0;entryDy=0;" edge="1" parent="1" source="TGXUFtwsRN9BxCt1GPU5-13" target="TGXUFtwsRN9BxCt1GPU5-19">
          <mxGeometry relative="1" as="geometry" />
        </mxCell>
        <mxCell id="TGXUFtwsRN9BxCt1GPU5-13" value="灰度放量" style="rounded=1;whiteSpace=wrap;html=1;" vertex="1" parent="1">
          <mxGeometry x="1280" y="450" width="120" height="40" as="geometry" />
        </mxCell>
        <mxCell id="TGXUFtwsRN9BxCt1GPU5-34" style="edgeStyle=orthogonalEdgeStyle;rounded=0;orthogonalLoop=1;jettySize=auto;html=1;exitX=0.5;exitY=1;exitDx=0;exitDy=0;entryX=0.5;entryY=0;entryDx=0;entryDy=0;" edge="1" parent="1" source="TGXUFtwsRN9BxCt1GPU5-18" target="TGXUFtwsRN9BxCt1GPU5-33">
          <mxGeometry relative="1" as="geometry" />
        </mxCell>
        <mxCell id="TGXUFtwsRN9BxCt1GPU5-18" value="策略1-10%" style="rounded=1;whiteSpace=wrap;html=1;" vertex="1" parent="1">
          <mxGeometry x="1190" y="540" width="120" height="40" as="geometry" />
        </mxCell>
        <mxCell id="TGXUFtwsRN9BxCt1GPU5-35" style="edgeStyle=orthogonalEdgeStyle;rounded=0;orthogonalLoop=1;jettySize=auto;html=1;exitX=0.5;exitY=1;exitDx=0;exitDy=0;" edge="1" parent="1" source="TGXUFtwsRN9BxCt1GPU5-19">
          <mxGeometry relative="1" as="geometry">
            <mxPoint x="1340" y="630" as="targetPoint" />
          </mxGeometry>
        </mxCell>
        <mxCell id="TGXUFtwsRN9BxCt1GPU5-19" value="策略2-20%" style="rounded=1;whiteSpace=wrap;html=1;" vertex="1" parent="1">
          <mxGeometry x="1380" y="540" width="120" height="40" as="geometry" />
        </mxCell>
        <mxCell id="TGXUFtwsRN9BxCt1GPU5-43" style="edgeStyle=orthogonalEdgeStyle;rounded=0;orthogonalLoop=1;jettySize=auto;html=1;exitX=0;exitY=0.5;exitDx=0;exitDy=0;entryX=0;entryY=0.5;entryDx=0;entryDy=0;" edge="1" parent="1" source="TGXUFtwsRN9BxCt1GPU5-23" target="TGXUFtwsRN9BxCt1GPU5-2">
          <mxGeometry relative="1" as="geometry">
            <mxPoint x="980" y="180" as="targetPoint" />
            <Array as="points">
              <mxPoint x="1030" y="885" />
              <mxPoint x="1030" y="70" />
            </Array>
          </mxGeometry>
        </mxCell>
        <mxCell id="TGXUFtwsRN9BxCt1GPU5-44" value="是" style="edgeLabel;html=1;align=center;verticalAlign=middle;resizable=0;points=[];" vertex="1" connectable="0" parent="TGXUFtwsRN9BxCt1GPU5-43">
          <mxGeometry x="-0.8525" y="-1" relative="1" as="geometry">
            <mxPoint x="-1" as="offset" />
          </mxGeometry>
        </mxCell>
        <mxCell id="TGXUFtwsRN9BxCt1GPU5-45" style="edgeStyle=orthogonalEdgeStyle;rounded=0;orthogonalLoop=1;jettySize=auto;html=1;exitX=1;exitY=0.5;exitDx=0;exitDy=0;entryX=1;entryY=0.5;entryDx=0;entryDy=0;" edge="1" parent="1" source="TGXUFtwsRN9BxCt1GPU5-23" target="TGXUFtwsRN9BxCt1GPU5-10">
          <mxGeometry relative="1" as="geometry">
            <mxPoint x="1670" y="460" as="targetPoint" />
            <Array as="points">
              <mxPoint x="1650" y="885" />
              <mxPoint x="1650" y="355" />
            </Array>
          </mxGeometry>
        </mxCell>
        <mxCell id="TGXUFtwsRN9BxCt1GPU5-46" value="否" style="edgeLabel;html=1;align=center;verticalAlign=middle;resizable=0;points=[];" vertex="1" connectable="0" parent="TGXUFtwsRN9BxCt1GPU5-45">
          <mxGeometry x="-0.7147" y="3" relative="1" as="geometry">
            <mxPoint x="-1" y="1" as="offset" />
          </mxGeometry>
        </mxCell>
        <mxCell id="TGXUFtwsRN9BxCt1GPU5-23" value="灰度是否出现问题" style="rhombus;whiteSpace=wrap;html=1;" vertex="1" parent="1">
          <mxGeometry x="1275" y="860" width="130" height="50" as="geometry" />
        </mxCell>
        <mxCell id="TGXUFtwsRN9BxCt1GPU5-37" value="Android" style="edgeStyle=orthogonalEdgeStyle;rounded=0;orthogonalLoop=1;jettySize=auto;html=1;exitX=0;exitY=0.5;exitDx=0;exitDy=0;entryX=1;entryY=0.5;entryDx=0;entryDy=0;" edge="1" parent="1" source="TGXUFtwsRN9BxCt1GPU5-33" target="TGXUFtwsRN9BxCt1GPU5-36">
          <mxGeometry relative="1" as="geometry">
            <mxPoint x="1260" y="655" as="targetPoint" />
          </mxGeometry>
        </mxCell>
        <mxCell id="TGXUFtwsRN9BxCt1GPU5-39" style="edgeStyle=orthogonalEdgeStyle;rounded=0;orthogonalLoop=1;jettySize=auto;html=1;exitX=1;exitY=0.5;exitDx=0;exitDy=0;entryX=0;entryY=0.5;entryDx=0;entryDy=0;" edge="1" parent="1" source="TGXUFtwsRN9BxCt1GPU5-33" target="TGXUFtwsRN9BxCt1GPU5-38">
          <mxGeometry relative="1" as="geometry" />
        </mxCell>
        <mxCell id="TGXUFtwsRN9BxCt1GPU5-40" value="iOS" style="edgeLabel;html=1;align=center;verticalAlign=middle;resizable=0;points=[];" vertex="1" connectable="0" parent="TGXUFtwsRN9BxCt1GPU5-39">
          <mxGeometry x="-0.0706" relative="1" as="geometry">
            <mxPoint x="-1" as="offset" />
          </mxGeometry>
        </mxCell>
        <mxCell id="TGXUFtwsRN9BxCt1GPU5-33" value="iOS or Android?" style="rhombus;whiteSpace=wrap;html=1;" vertex="1" parent="1">
          <mxGeometry x="1275" y="630" width="130" height="50" as="geometry" />
        </mxCell>
        <mxCell id="TGXUFtwsRN9BxCt1GPU5-49" style="edgeStyle=orthogonalEdgeStyle;rounded=0;orthogonalLoop=1;jettySize=auto;html=1;exitX=0.5;exitY=1;exitDx=0;exitDy=0;entryX=0.5;entryY=0;entryDx=0;entryDy=0;" edge="1" parent="1" source="TGXUFtwsRN9BxCt1GPU5-36" target="TGXUFtwsRN9BxCt1GPU5-48">
          <mxGeometry relative="1" as="geometry" />
        </mxCell>
        <mxCell id="TGXUFtwsRN9BxCt1GPU5-36" value="弹窗下载更新" style="rounded=1;whiteSpace=wrap;html=1;" vertex="1" parent="1">
          <mxGeometry x="1070" y="635" width="120" height="40" as="geometry" />
        </mxCell>
        <mxCell id="TGXUFtwsRN9BxCt1GPU5-42" style="edgeStyle=orthogonalEdgeStyle;rounded=0;orthogonalLoop=1;jettySize=auto;html=1;exitX=0.5;exitY=1;exitDx=0;exitDy=0;" edge="1" parent="1" source="TGXUFtwsRN9BxCt1GPU5-38">
          <mxGeometry relative="1" as="geometry">
            <mxPoint x="1340" y="760" as="targetPoint" />
          </mxGeometry>
        </mxCell>
        <mxCell id="TGXUFtwsRN9BxCt1GPU5-38" value="弹窗提示下载TestFlinght" style="rounded=1;whiteSpace=wrap;html=1;" vertex="1" parent="1">
          <mxGeometry x="1490" y="635" width="120" height="40" as="geometry" />
        </mxCell>
        <mxCell id="TGXUFtwsRN9BxCt1GPU5-50" style="edgeStyle=orthogonalEdgeStyle;rounded=0;orthogonalLoop=1;jettySize=auto;html=1;exitX=0.5;exitY=1;exitDx=0;exitDy=0;entryX=0.5;entryY=0;entryDx=0;entryDy=0;" edge="1" parent="1" source="TGXUFtwsRN9BxCt1GPU5-48" target="TGXUFtwsRN9BxCt1GPU5-23">
          <mxGeometry relative="1" as="geometry" />
        </mxCell>
        <mxCell id="TGXUFtwsRN9BxCt1GPU5-48" value="上传反馈埋点" style="rounded=1;whiteSpace=wrap;html=1;" vertex="1" parent="1">
          <mxGeometry x="1280" y="760" width="120" height="40" as="geometry" />
        </mxCell>
      </root>
    </mxGraphModel>
  </diagram>
</mxfile>
